<svg width="249" height="40" viewBox="0 0 249 40" fill="none" xmlns="http://www.w3.org/2000/svg">
<path d="M20.8231 39.9176C18.4315 39.9176 17.1395 39.5333 16.9471 38.7647L15.5864 33.4529H9.0302L7.83442 38.5588C7.66948 39.4098 6.35 39.8353 3.87597 39.8353C2.55649 39.8353 1.58063 39.7667 0.948377 39.6294C0.316126 39.4647 0 39.3412 0 39.2588L7.29838 11.3823C7.29838 11.1627 9.18139 11.0529 12.9474 11.0529C16.7134 11.0529 18.5964 11.1627 18.5964 11.3823L25.7299 39.3C25.7299 39.4922 25.0976 39.6431 23.8331 39.7529C22.5686 39.8628 21.5653 39.9176 20.8231 39.9176ZM10.061 28.2235H14.3906L12.5351 19.7H12.2877L10.061 28.2235Z" fill="white"/>
<path d="M39.827 39.1765C39.827 39.7255 38.4663 40 35.7449 40C33.0234 40 31.6627 39.7255 31.6627 39.1765V18.5059H26.7147C26.2473 18.5059 25.9175 17.8745 25.725 16.6117C25.6426 16.0078 25.6013 15.3902 25.6013 14.7588C25.6013 14.1274 25.6426 13.5098 25.725 12.9059C25.9175 11.6431 26.2473 11.0117 26.7147 11.0117H44.6513C45.1187 11.0117 45.4485 11.6431 45.641 12.9059C45.7234 13.5098 45.7647 14.1274 45.7647 14.7588C45.7647 15.3902 45.7234 16.0078 45.641 16.6117C45.4485 17.8745 45.1187 18.5059 44.6513 18.5059H39.827V39.1765Z" fill="white"/>
<path d="M47.7007 37.4059V11.7941C47.7007 11.2176 49.0889 10.9294 51.8653 10.9294C54.6692 10.9294 56.0712 11.2176 56.0712 11.7941V31.9706H62.4212C62.916 31.9706 63.2596 32.6157 63.452 33.9059C63.5345 34.5372 63.5757 35.1823 63.5757 35.8412C63.5757 36.5 63.5345 37.1725 63.452 37.8588C63.2321 39.1765 62.8747 39.8353 62.3799 39.8353H49.6799C49.0752 39.8353 48.5941 39.5882 48.2368 39.0941C47.8794 38.6 47.7007 38.0373 47.7007 37.4059Z" fill="white"/>
<path d="M85.4119 39.9176C83.0203 39.9176 81.7283 39.5333 81.5359 38.7647L80.1752 33.4529H73.619L72.4233 38.5588C72.2583 39.4098 70.9389 39.8353 68.4648 39.8353C67.1453 39.8353 66.1695 39.7667 65.5372 39.6294C64.905 39.4647 64.5888 39.3412 64.5888 39.2588L71.8872 11.3823C71.8872 11.1627 73.7702 11.0529 77.5362 11.0529C81.3023 11.0529 83.1853 11.1627 83.1853 11.3823L90.3187 39.3C90.3187 39.4922 89.6865 39.6431 88.422 39.7529C87.1575 39.8628 86.1541 39.9176 85.4119 39.9176ZM74.6499 28.2235H78.9794L77.1239 19.7H76.8765L74.6499 28.2235Z" fill="white"/>
<path d="M115.648 38.9294C115.648 39.5059 114.356 39.7941 111.772 39.7941C109.188 39.7941 107.786 39.5882 107.566 39.1765L100.68 26.3294V39.1353C100.68 39.6294 99.4014 39.8765 96.8449 39.8765C94.3159 39.8765 93.0514 39.6294 93.0514 39.1353V11.5882C93.0514 11.1764 94.1373 10.9706 96.3089 10.9706C97.1611 10.9706 98.1507 11.0529 99.2777 11.2176C100.432 11.3549 101.133 11.6294 101.381 12.0412L107.978 24.7235V11.7941C107.978 11.2725 109.256 11.0117 111.813 11.0117C114.369 11.0117 115.648 11.2725 115.648 11.7941V38.9294Z" fill="white"/>
<path d="M132.2 39.1765C132.2 39.7255 130.84 40 128.118 40C125.397 40 124.036 39.7255 124.036 39.1765V18.5059H119.088C118.621 18.5059 118.291 17.8745 118.098 16.6117C118.016 16.0078 117.975 15.3902 117.975 14.7588C117.975 14.1274 118.016 13.5098 118.098 12.9059C118.291 11.6431 118.621 11.0117 119.088 11.0117H137.025C137.492 11.0117 137.822 11.6431 138.014 12.9059C138.097 13.5098 138.138 14.1274 138.138 14.7588C138.138 15.3902 138.097 16.0078 138.014 16.6117C137.822 17.8745 137.492 18.5059 137.025 18.5059H132.2V39.1765Z" fill="white"/>
<path d="M143.208 32.7529V18.0941H140.28C139.813 18.0941 139.483 17.5039 139.291 16.3235C139.208 15.747 139.167 15.1568 139.167 14.5529C139.167 13.949 139.208 13.3588 139.291 12.7823C139.483 11.6019 139.813 11.0117 140.28 11.0117H154.135C154.602 11.0117 154.918 11.6019 155.083 12.7823C155.193 13.3588 155.248 13.949 155.248 14.5529C155.248 15.1568 155.193 15.747 155.083 16.3235C154.918 17.5039 154.602 18.0941 154.135 18.0941H151.372V32.7529H154.258C154.726 32.7529 155.056 33.3431 155.248 34.5235C155.358 35.1 155.413 35.6902 155.413 36.2941C155.413 36.898 155.358 37.4882 155.248 38.0647C155.056 39.2451 154.726 39.8353 154.258 39.8353H140.363C139.895 39.8353 139.579 39.2451 139.414 38.0647C139.304 37.4882 139.249 36.898 139.249 36.2941C139.249 35.6902 139.304 35.1 139.414 34.5235C139.579 33.3431 139.895 32.7529 140.363 32.7529H143.208Z" fill="white"/>
<path d="M158.164 37.9412V13.2353C158.164 12.549 158.329 12.0137 158.659 11.6294C159.016 11.2176 159.469 11.0117 160.019 11.0117H166.905C171.276 11.0117 174.589 12.1098 176.843 14.3059C179.124 16.5019 180.265 19.9608 180.265 24.6823C180.265 34.7843 175.949 39.8353 167.318 39.8353H160.267C158.865 39.8353 158.164 39.2039 158.164 37.9412ZM166.081 18.8353V31.147C166.081 31.7235 166.122 32.0941 166.204 32.2588C166.287 32.3961 166.534 32.4647 166.947 32.4647C168.458 32.4647 169.599 31.9019 170.369 30.7765C171.166 29.651 171.565 27.7843 171.565 25.1764C171.565 22.5411 171.152 20.8255 170.328 20.0294C169.531 19.2333 168.252 18.8353 166.493 18.8353H166.081Z" fill="white"/>
<path d="M202.952 39.9176C200.561 39.9176 199.269 39.5333 199.076 38.7647L197.716 33.4529H191.159L189.964 38.5588C189.799 39.4098 188.479 39.8353 186.005 39.8353C184.686 39.8353 183.71 39.7667 183.078 39.6294C182.445 39.4647 182.129 39.3412 182.129 39.2588L189.428 11.3823C189.428 11.1627 191.311 11.0529 195.077 11.0529C198.843 11.0529 200.726 11.1627 200.726 11.3823L207.859 39.3C207.859 39.4922 207.227 39.6431 205.962 39.7529C204.698 39.8628 203.695 39.9176 202.952 39.9176ZM192.19 28.2235H196.52L194.664 19.7H194.417L192.19 28.2235Z" fill="white"/>
<path fill-rule="evenodd" clip-rule="evenodd" d="M233.664 29.4829C233.666 29.9328 233.654 30.6153 233.654 30.6153C233.654 30.6153 233.036 30.3749 232.735 30.1752C232.433 29.9758 232.241 30.0062 232.029 29.9309C231.819 29.8576 229.669 29.935 229.45 29.8658C229.23 29.7964 229.234 29.7578 229.13 29.7252C229.028 29.6927 228.15 29.6172 228.15 29.6172C228.15 29.6172 228.171 29.0917 228.181 28.9818C228.19 28.8699 228.164 28.7966 228.149 28.7435C228.133 28.6885 228.15 28.2405 228.039 28.1814C227.929 28.1223 227.517 28.159 227.517 28.159C227.517 28.159 227.447 27.9899 227.363 28.0165C227.279 28.043 223.358 30.0693 223.003 30.155C222.649 30.2406 221.214 30.487 221.076 30.4807C220.938 30.4747 220.832 30.4258 220.868 30.3546C220.906 30.2833 221.504 29.4889 221.592 29.4216C221.68 29.3546 221.688 29.4503 221.784 29.3546C221.881 29.2589 222.323 28.5988 222.565 28.4481C222.807 28.2974 223.622 27.9981 223.862 27.9308C224.104 27.8638 224.24 27.6641 224.24 27.6641C224.24 27.6641 227.777 27.0205 228.288 27.0003C228.8 26.9778 229.226 27.1365 229.385 27.1813C229.545 27.2262 230.483 27.1365 230.7 27.1182C230.918 27.0998 230.92 27.1611 231.132 27.0979C231.344 27.0328 232.327 27.0063 232.877 26.884C233.426 26.7598 233.666 26.7109 233.666 26.7109C233.666 26.7109 233.662 29.0326 233.664 29.4829ZM243.738 16.3241C243.738 16.3241 243.5 16.2161 243.466 16.1734C243.43 16.1285 243.318 16.0533 243.29 15.9797C243.264 15.9064 243.38 15.6988 243.38 15.6988C243.38 15.6988 243.382 15.6315 243.386 15.5462C243.39 15.4606 243.43 15.1165 243.316 14.9879C243.202 14.8618 243.113 14.7904 243.081 14.7639C243.048 14.7376 242.765 14.6906 242.765 14.6906C242.765 14.6906 242.651 14.5338 242.603 14.5095C242.555 14.487 242.087 14.7702 242.087 14.7702C242.087 14.7702 242.139 14.9411 242.171 15.0002C242.201 15.0593 242.425 15.1449 242.425 15.1449C242.425 15.1449 242.321 15.1692 242.201 15.2467C242.081 15.3241 242.121 15.3525 242.121 15.3525C242.121 15.3525 241.878 15.2975 241.863 15.2997C241.849 15.3016 241.386 15.5196 241.386 15.5196C241.386 15.5196 241.368 15.5664 241.33 15.6132C241.292 15.6581 241.068 15.4179 240.76 15.3955C240.455 15.373 239.879 15.2283 239.749 15.2751C239.619 15.32 238.538 15.8761 238.538 15.8761C238.538 15.8761 238.482 15.8495 238.452 15.817C238.422 15.7822 237.701 16.2385 237.685 16.265C237.669 16.2935 237.745 16.4401 237.745 16.4401L236.244 17.3811L236.132 17.4035C236.132 17.4035 234.883 18.0958 234.763 18.1978C234.645 18.2996 234.547 18.4667 234.547 18.4667C234.547 18.4667 233.882 18.8658 233.822 18.9372C233.76 19.0083 233.814 18.9922 233.932 19.2406C234.05 19.4889 235.309 21.5889 235.369 21.6805C235.429 21.7722 237.161 20.9696 237.285 20.9026C237.409 20.8353 237.429 20.8739 237.505 20.9209C237.579 20.9677 237.331 21.1285 237.131 21.2874C236.932 21.4461 236.863 21.6458 236.764 21.7374C236.664 21.829 235.463 21.7415 235.463 21.7415C235.463 21.7415 234.843 21.9655 234.446 22.218C234.05 22.4708 233.798 22.933 233.676 23.0756C233.554 23.2181 231.981 23.9717 231.284 24.263C230.589 24.554 230.265 24.8046 230.265 24.8046L229.483 25.0043C229.31 25.0491 229.022 24.992 228.612 24.9635C228.204 24.9351 227.349 24.9471 226.602 25.1651C225.854 25.3831 224.04 26.332 223.972 26.3689C223.904 26.4056 223.918 26.3361 223.768 26.3544C223.618 26.3728 222.913 26.6947 222.763 26.6884C222.613 26.6824 222.597 26.6296 222.517 26.5968C222.439 26.5642 222.269 26.6192 222.139 26.6274C222.009 26.6356 221.855 26.5073 221.678 26.4524C221.502 26.3974 221.074 26.3791 221.006 26.3911C220.938 26.4034 220.844 26.5052 220.796 26.5298C220.748 26.5563 220.7 26.5826 220.568 26.7292C220.437 26.8758 219.879 28.2569 219.763 28.8086C219.645 29.3606 219.202 30.3423 219.202 30.3423C219.202 30.3423 218.898 30.2567 218.816 30.2627C218.734 30.2709 217.475 29.6497 217.411 29.6235C217.347 29.5948 217.331 29.7293 217.331 29.7293C217.331 29.7293 217.021 29.9837 216.73 30.106C216.436 30.2283 216.214 30.2731 216.08 30.3708C215.946 30.4687 215.629 31.1061 215.629 31.1061C215.629 31.1061 216.212 31.4909 216.73 31.66C217.249 31.829 218.35 31.9819 218.35 31.9819C218.35 31.9819 218.356 32.0407 218.208 32.2976C218.061 32.5542 216.258 35.1752 216.198 35.2955C216.138 35.4156 216.248 35.5316 216.304 35.6131C216.36 35.6965 216.494 35.8352 216.57 35.9819C216.646 36.1285 216.785 37.1693 216.785 37.1693C216.785 37.1693 216.939 37.0856 217.061 36.9431C217.183 36.8006 217.653 36.1446 218.143 35.5787C218.632 35.0102 220.319 31.8391 220.319 31.8391C220.319 31.8391 220.647 31.7617 221.024 31.7314C221.402 31.7007 223.374 31.0043 224.208 30.9534C225.041 30.9004 226.004 30.9288 226.178 30.9105C226.352 30.8902 226.478 30.8719 226.83 30.9572C227.181 31.0409 227.809 31.3016 228.071 31.4482C228.332 31.5949 228.51 31.3465 228.51 31.3465C228.51 31.3465 230.077 32.0612 230.711 32.3567C231.344 32.6518 233.087 32.9959 233.458 33.1182C233.83 33.2424 234.519 33.1937 234.861 33.0714C235.203 32.9491 235.355 32.8168 235.553 32.5703C235.751 32.3238 235.86 31.9004 235.86 31.9004C235.86 31.9004 235.874 31.8922 235.938 31.8391C236.002 31.7863 236.782 29.7944 237.033 28.6803C237.287 27.5643 237.361 26.1591 237.361 26.1591C237.361 26.1591 237.567 26.0593 237.721 25.9759C237.875 25.8922 237.897 25.8169 237.897 25.8169C237.897 25.8169 237.955 25.9737 238.005 26.0713C238.055 26.1693 238.176 26.1162 238.176 26.1162L238.834 27.5378C238.834 27.5378 238.838 27.6866 238.756 27.7864C238.674 27.8882 238.248 28.0123 238.248 28.0123C238.248 28.0123 238.197 28.6418 238.184 28.711C238.172 28.7802 238.29 28.7353 238.394 28.6904C238.5 28.6459 238.584 28.6193 238.74 28.4339C238.896 28.2487 239.344 27.5419 239.36 27.2894C239.376 27.0369 238.996 25.9573 238.996 25.9573C238.996 25.9573 239.336 25.7844 239.489 25.7272C239.643 25.6681 239.527 25.707 239.495 25.5989C239.463 25.4909 239.539 25.4482 239.625 25.3771C239.711 25.3057 239.795 25.373 239.869 25.4198C239.943 25.4665 239.875 25.4788 239.877 25.5522C239.879 25.6255 239.833 25.7272 239.829 25.9288C239.825 26.1326 239.945 26.4808 239.931 26.6884C239.917 26.8963 239.637 28.6661 239.685 28.8026C239.733 28.9391 239.701 29.0449 239.723 29.1325C239.745 29.22 239.709 29.3157 239.709 29.3157C239.709 29.3157 239.607 29.5461 239.635 29.6437C239.661 29.7414 240.061 29.7761 240.153 29.7395C240.245 29.7028 240.235 29.7069 240.295 29.0225C240.355 28.3381 240.123 25.6621 240.123 25.6621C240.123 25.6621 240.133 25.6561 240.163 25.6457C240.195 25.6356 240.339 25.7456 240.381 25.8027C240.423 25.8596 240.597 26.155 240.69 26.2059C240.784 26.2549 240.886 26.1936 240.956 26.1611C241.026 26.1285 241.012 26.1876 241.062 26.2344C241.112 26.2833 241.246 26.3282 241.246 26.3282C241.246 26.3282 241.248 26.9532 241.25 26.9838C241.254 27.0145 240.942 26.9819 240.886 26.994C240.83 27.0063 240.836 27.0145 240.8 27.1712C240.766 27.328 240.868 28.4626 240.894 28.5236C240.92 28.5846 241.366 28.5805 241.442 28.5827C241.518 28.5846 241.556 28.552 241.556 28.552C241.556 28.552 241.842 28.4402 241.91 28.3343C241.977 28.2282 242.059 28.0082 242.033 27.7476C242.007 27.4869 241.902 27.273 241.848 27.2853C241.792 27.2976 241.724 27.2711 241.682 27.2629C241.64 27.2546 241.65 27.1794 241.638 27.0736C241.626 26.9677 241.582 26.2508 241.582 26.2508L241.743 26.1632C241.826 26.1184 241.812 26.1266 241.84 26.0675C241.87 26.0062 241.87 25.937 241.878 25.8577C241.885 25.7781 241.932 25.7721 241.958 25.7395C241.983 25.707 242.003 25.7089 242.083 25.7904C242.163 25.8719 242.237 25.707 242.283 25.5948C242.329 25.483 242.221 25.3588 242.181 25.2814C242.141 25.2039 242.183 25.204 242.217 25.1367C242.249 25.0694 242.321 24.711 242.321 24.711C242.321 24.711 242.423 24.6804 242.501 24.6314C242.579 24.5827 242.547 24.5072 242.521 24.3891C242.497 24.2712 242.379 24.2731 242.379 24.2731L242.257 24.0756C242.257 24.0756 242.455 24.0999 242.709 24.0693C242.963 24.0389 243.912 24.0876 243.912 24.0876C243.912 24.0876 243.934 24.0939 244.006 24.2181C244.078 24.3423 244.318 24.5319 244.415 24.591C244.513 24.6498 244.579 24.658 244.625 24.6643C244.671 24.6703 244.739 24.6213 244.773 24.6396C244.807 24.658 244.975 24.7192 245.057 24.7231C245.139 24.7294 245.163 24.6213 245.187 24.5461C245.209 24.4706 245.165 24.3382 245.165 24.3382C245.165 24.3382 245.323 24.2405 245.367 24.1224C245.409 24.0042 245.365 23.9553 245.365 23.9553C245.365 23.9553 245.391 23.935 245.449 23.929C245.507 23.9227 245.541 23.7293 245.515 23.6437C245.489 23.5583 245.259 23.438 245.259 23.438C245.259 23.438 245.247 23.3565 245.247 23.2873C245.247 23.2181 245.596 22.0938 245.668 21.7232C245.738 21.3525 245.814 20.0207 245.814 20.0207C245.814 20.0207 245.876 19.9961 245.9 19.9961C245.924 19.9961 246.028 19.9351 246.044 19.8842C246.06 19.8311 245.952 19.4605 245.952 19.4605C245.952 19.4605 246.304 19.1692 246.43 19.1265C246.556 19.0838 246.904 19.1957 247.097 19.1897C247.291 19.1834 247.435 19.0491 247.477 19.0693C247.519 19.0898 247.629 19.3505 247.685 19.4197C247.741 19.4911 248.136 19.5439 248.192 19.5319C248.248 19.5196 248.228 19.4115 248.236 19.3689C248.245 19.3262 248.302 19.2712 248.302 19.2712L248.362 19.269C248.362 19.269 248.488 19.4137 248.566 19.4586C248.644 19.5032 248.776 19.4258 248.852 19.3221C248.928 19.2181 249.026 18.6886 248.994 18.4993C248.962 18.3097 248.904 18.267 248.84 18.2386C248.776 18.2099 248.638 18.2282 248.592 18.2345C248.546 18.2405 247.985 18.1204 247.985 18.1204C247.985 18.1204 247.965 18.1182 247.959 18.0715C247.953 18.0247 247.939 17.9637 247.925 17.935C247.909 17.9065 247.883 17.7498 247.883 17.7498C247.883 17.7498 248.242 17.5909 248.282 17.5501C248.322 17.5093 248.37 16.3178 248.332 16.2812C248.294 16.2445 247.867 16.1652 247.867 16.1652C247.867 16.1652 247.729 16.0205 247.675 15.9759C247.621 15.931 247.565 15.9289 247.565 15.9289C247.565 15.9289 247.491 15.7171 247.381 15.5073C247.271 15.2975 247.169 15.265 246.907 15.2018C246.646 15.1367 245.748 14.9983 245.417 15.1164C245.085 15.2343 244.957 15.3424 244.773 15.6031C244.591 15.8659 244.575 16.0246 244.553 16.0979C244.531 16.1734 244.476 16.2527 244.432 16.2894C244.389 16.3241 244.338 16.3914 244.24 16.369C244.136 16.3586 243.738 16.3241 243.738 16.3241ZM242.797 16.762C242.745 16.7396 242.709 16.715 242.735 16.6907C242.763 16.6663 242.911 16.544 242.959 16.485C243.007 16.424 243.117 16.3403 243.117 16.3403C243.117 16.3403 243.114 16.3219 243.114 16.3282L243.374 16.5889C243.374 16.5889 243.368 16.6846 243.34 16.709C243.312 16.7314 242.847 16.7845 242.797 16.762ZM245.405 20.0532C245.405 20.0532 245.399 20.3443 245.371 20.3525C245.345 20.3607 245.291 20.3404 245.305 20.3076C245.319 20.2751 245.319 20.0757 245.339 20.0552C245.357 20.0349 245.405 20.0532 245.405 20.0532ZM244.493 22.5134C244.527 22.4951 244.799 22.4278 244.799 22.4278C244.799 22.4278 244.889 22.5175 244.875 22.5501C244.861 22.5826 244.811 22.7109 244.739 22.7375C244.667 22.764 244.471 22.8149 244.342 22.9046C244.21 22.994 244.174 23.1346 244.104 23.153C244.034 23.1713 243.936 23.1508 243.886 23.1469C243.834 23.1428 243.618 23.092 243.61 23.0654C243.602 23.0389 243.654 22.9738 243.732 22.8983C243.81 22.825 244.158 22.4543 244.18 22.436C244.202 22.4177 244.208 22.3709 244.244 22.4076C244.282 22.4442 244.313 22.5194 244.342 22.5359C244.366 22.552 244.459 22.5318 244.493 22.5134ZM244.811 21.77C244.829 21.7924 244.861 21.7946 244.865 21.8597C244.869 21.927 244.899 22.2303 244.847 22.2262C244.795 22.2221 244.705 21.872 244.705 21.872C244.725 21.8414 244.793 21.7497 244.811 21.77ZM245.175 21.1712C245.207 21.1734 245.327 21.2833 245.319 21.3178C245.313 21.3525 245.049 22.0837 245.027 22.1346C245.005 22.1855 244.931 22.4809 244.943 22.3994C244.955 22.3179 244.943 21.823 244.953 21.762L245.025 21.3342C245.065 21.2811 245.143 21.1712 245.175 21.1712ZM242.499 16.6009C242.499 16.6009 242.155 16.5216 242.089 16.4647C242.021 16.4075 242.007 16.3851 242.015 16.3649C242.021 16.3424 242.077 16.2303 242.117 16.2079C242.157 16.1854 242.465 16.1611 242.579 16.1551C242.687 16.1488 242.871 16.1652 242.881 16.1633C242.881 16.1712 242.873 16.2916 242.855 16.3342C242.835 16.3791 242.713 16.5052 242.655 16.5399C242.595 16.5725 242.499 16.6009 242.499 16.6009ZM242.755 15.0959C242.755 15.0593 242.795 14.937 242.843 14.9474C242.893 14.9594 243.023 14.9737 243.101 15.0634C243.179 15.1531 243.258 15.3159 243.223 15.4362C243.186 15.5563 243.131 15.7557 243.066 15.7152C243.003 15.6745 242.755 15.0959 242.755 15.0959ZM245.345 20.5522C245.347 20.5787 245.357 20.8881 245.333 20.9064C245.309 20.9247 245.173 20.9086 245.175 20.8862C245.175 20.8637 245.263 20.55 245.273 20.5338C245.285 20.5196 245.345 20.5522 245.345 20.5522Z" fill="white"/>
<path d="M68.5517 4.93976C68.6207 4.85722 68.7143 4.80965 68.8153 4.78329C69.0612 4.71835 69.3109 4.71017 69.5627 4.73893C69.6575 4.74988 69.729 4.79495 69.7745 4.8777C69.8516 5.01748 69.9818 5.0884 70.1244 5.14299C70.2749 5.2 70.4157 5.16155 70.551 5.09295C70.8501 4.94124 71.1335 4.76372 71.4053 4.56509C71.5908 4.43012 71.7802 4.30214 71.9676 4.16856C72.404 3.85699 72.8569 3.57256 73.3378 3.33304C73.686 3.15964 74.0482 3.0223 74.4141 2.89184C74.5742 2.83419 74.7338 2.77433 74.8611 2.65523C74.9452 2.57558 75.0022 2.47515 75.0681 2.38166C75.3178 2.03306 75.5308 1.65968 75.7853 1.31304C76.0241 0.988392 76.3008 0.700222 76.6111 0.442509C76.8108 0.276876 77.0216 0.130134 77.2692 0.0456138C77.3385 0.0213887 77.4086 0.0037434 77.4823 0.000264553C77.5874 -0.00448824 77.6322 0.0550781 77.5959 0.156358C77.5607 0.257857 77.4972 0.343562 77.4313 0.425654C77.235 0.670005 77.0708 0.931915 76.9639 1.22686C76.8497 1.54216 76.7475 1.86093 76.7401 2.20099C76.7375 2.30668 76.7441 2.41205 76.7496 2.51839C76.7538 2.59932 76.7902 2.66461 76.8602 2.7115C76.9554 2.77462 77.0644 2.80388 77.1714 2.83812C77.6267 2.98414 78.082 3.13017 78.5378 3.27326C79.257 3.49935 79.9646 3.75752 80.6825 3.9844C80.7708 4.01295 80.8598 4.0373 80.9481 4.06584C81.1023 4.11428 81.2526 4.09742 81.4016 4.04287C81.5464 3.98947 81.6918 3.93839 81.8407 3.89625C82.1054 3.82026 82.3607 3.85808 82.6125 3.94617C82.6731 3.96714 82.7473 3.99295 82.7472 4.07412C82.7468 4.15732 82.6772 4.18868 82.6086 4.21409C82.5448 4.23714 82.4787 4.25569 82.4273 4.30615C82.3988 4.33496 82.3941 4.35907 82.4125 4.39901C82.5036 4.59571 82.6651 4.69347 82.8675 4.74597C83.0381 4.79038 83.2067 4.83951 83.381 4.87099C83.552 4.9029 83.7167 4.89722 83.8804 4.83188C84.1774 4.71326 84.4665 4.57623 84.7547 4.43813C85.3516 4.15342 85.9528 3.87885 86.5834 3.67344C86.9158 3.56559 87.2186 3.3897 87.5211 3.21585C87.6759 3.12692 87.8297 3.03689 87.9939 2.96443C88.0179 2.95335 88.0429 2.9426 88.0678 2.93693C88.0995 2.92956 88.1347 2.92074 88.1597 2.95266C88.1875 2.98709 88.1791 3.02502 88.162 3.0593C88.1252 3.13128 88.0667 3.18562 88.0041 3.23496C87.9375 3.28773 87.8919 3.35186 87.8745 3.43599C87.8619 3.49601 87.8432 3.55486 87.8303 3.61589C87.8128 3.69579 87.767 3.74431 87.6836 3.75535C87.6483 3.75992 87.6137 3.76674 87.5799 3.77386C87.5049 3.79056 87.4386 3.81537 87.3998 3.8922C87.3712 3.9481 87.3177 3.98258 87.2662 4.01742C86.7699 4.35805 86.2704 4.69388 85.7775 5.03934C85.4785 5.24923 85.1793 5.46024 84.8933 5.68937C84.7404 5.81192 84.6979 5.98286 84.7172 6.16883C84.7303 6.29524 84.7114 6.32799 84.5832 6.33353C84.4496 6.33999 84.3328 6.29246 84.2235 6.22152C84.0708 6.12229 83.9421 5.99548 83.8237 5.8581C83.7566 5.77956 83.6773 5.73192 83.5755 5.72488C83.2091 5.70113 82.8424 5.66267 82.4742 5.68649C82.3592 5.69341 82.2466 5.71544 82.1399 5.76047C82.0084 5.8154 81.9752 5.88493 82.0126 6.0202C82.0398 6.11709 81.9983 6.16947 81.8984 6.16906C81.6475 6.16745 81.4681 6.03401 81.3105 5.85685C81.2634 5.80405 81.2154 5.75105 81.1788 5.6919C81.1263 5.60779 81.0509 5.56105 80.9606 5.53225C80.9116 5.51652 80.867 5.51002 80.8148 5.53741C80.7082 5.5928 80.5852 5.5983 80.4698 5.62398C80.3881 5.64254 80.3067 5.65918 80.2333 5.70436C80.1872 5.73291 80.1581 5.77001 80.1489 5.82347C80.1266 5.9441 80.1541 6.05557 80.2131 6.15966C80.2402 6.20758 80.2712 6.25308 80.2971 6.30182C80.3225 6.34834 80.3541 6.40027 80.3196 6.44992C80.2834 6.50226 80.2258 6.53594 80.1599 6.52638C79.714 6.46125 79.3291 6.28506 79.0468 5.91824C78.9635 5.80949 78.9031 5.68537 78.8125 5.58254C78.7562 5.51866 78.6903 5.48199 78.6041 5.46956C78.1699 5.40864 77.7417 5.47826 77.3139 5.53002C76.8348 5.58761 76.3585 5.66878 75.8837 5.75836C75.834 5.7675 75.805 5.78797 75.7898 5.83504C75.7535 5.94669 75.7271 6.06245 75.7378 6.17909C75.7653 6.47375 75.823 6.76299 75.9632 7.0295C76.0383 7.17414 76.1555 7.27999 76.28 7.37994C76.466 7.52826 76.6548 7.67294 76.8492 7.81043C76.8887 7.83782 76.9264 7.86906 76.9616 7.90281C76.9878 7.92867 77.0173 7.95938 77.0009 8.00099C76.9845 8.04261 76.9423 8.04496 76.9049 8.04494C76.8548 8.04473 76.804 8.04422 76.7531 8.03756C76.3289 7.98396 75.9156 7.89079 75.5226 7.71816C75.2681 7.60665 75.0606 7.42917 74.8748 7.22576C74.5943 6.91977 74.3384 6.59443 74.1225 6.23948C74.079 6.16747 74.0376 6.15542 73.9612 6.16257C73.5421 6.20146 73.1213 6.22759 72.7041 6.28258C72.3855 6.32525 72.0699 6.38843 71.7536 6.4503C71.7451 6.45179 71.7364 6.45326 71.7277 6.45564C71.6996 6.46594 71.6513 6.44616 71.6447 6.47512C71.6375 6.50699 71.6861 6.51952 71.7118 6.53807C71.7603 6.57231 71.8152 6.59546 71.8699 6.62052C71.9118 6.64013 71.9553 6.65781 71.9944 6.68198C72.068 6.72746 72.1513 6.77586 72.138 6.87739C72.1235 6.98497 72.0541 7.06313 71.948 7.09479C71.7668 7.14838 71.5812 7.18134 71.3914 7.20304C71.2188 7.22293 71.0762 7.16833 70.9359 7.08512C70.8864 7.05569 70.842 7.02119 70.81 6.97129C70.7806 6.92398 70.7366 6.89771 70.6814 6.88707C70.5407 6.85994 70.3983 6.84193 70.2626 6.79495C70.1513 6.75583 70.048 6.70253 69.9644 6.61767C69.9262 6.5781 69.8818 6.56534 69.8274 6.56639C69.5823 6.57322 69.3947 6.45483 69.2314 6.28588C69.2278 6.28308 69.2241 6.28028 69.2229 6.27598C69.1746 6.14792 69.061 6.09996 68.9487 6.05018C68.8959 6.02651 68.8533 5.98804 68.8122 5.94791C68.7393 5.87768 68.7072 5.79543 68.7418 5.69696C68.7629 5.63648 68.7498 5.5965 68.6909 5.56733C68.6604 5.55215 68.6342 5.52629 68.6087 5.50161C68.5211 5.41598 68.5093 5.34182 68.5783 5.2437C68.6072 5.20238 68.6086 5.17358 68.5833 5.13114C68.5621 5.09589 68.5536 5.05366 68.5393 5.01437C68.5418 4.99088 68.5468 4.96488 68.5517 4.93976Z" fill="white"/>
</svg>
