<svg width="176" height="64" viewBox="0 0 176 64" fill="none" xmlns="http://www.w3.org/2000/svg">
<rect x="0.75" y="0.75" width="174.5" height="62.5" rx="4.25" stroke="#007FFF" stroke-width="1.5"/>
<path d="M57.32 25C57.232 25 57.164 24.976 57.116 24.928C57.068 24.872 57.044 24.804 57.044 24.724V16.888C57.044 16.8 57.068 16.732 57.116 16.684C57.164 16.628 57.232 16.6 57.32 16.6H60.044C60.868 16.6 61.532 16.724 62.036 16.972C62.54 17.22 62.908 17.588 63.14 18.076C63.372 18.556 63.492 19.148 63.5 19.852C63.508 20.212 63.512 20.528 63.512 20.8C63.512 21.072 63.508 21.384 63.5 21.736C63.484 22.472 63.36 23.084 63.128 23.572C62.904 24.052 62.544 24.412 62.048 24.652C61.56 24.884 60.912 25 60.104 25H57.32ZM58.22 23.98H60.044C60.596 23.98 61.036 23.904 61.364 23.752C61.692 23.6 61.928 23.356 62.072 23.02C62.224 22.684 62.304 22.24 62.312 21.688C62.328 21.448 62.336 21.24 62.336 21.064C62.336 20.88 62.336 20.7 62.336 20.524C62.336 20.34 62.328 20.132 62.312 19.9C62.296 19.124 62.112 18.552 61.76 18.184C61.408 17.808 60.816 17.62 59.984 17.62H58.22V23.98ZM67.7174 25.12C67.1094 25.12 66.6014 25.004 66.1934 24.772C65.7854 24.54 65.4734 24.22 65.2574 23.812C65.0414 23.396 64.9214 22.924 64.8974 22.396C64.8894 22.26 64.8854 22.088 64.8854 21.88C64.8854 21.664 64.8894 21.492 64.8974 21.364C64.9214 20.828 65.0414 20.356 65.2574 19.948C65.4814 19.54 65.7974 19.22 66.2054 18.988C66.6134 18.756 67.1174 18.64 67.7174 18.64C68.3174 18.64 68.8214 18.756 69.2294 18.988C69.6374 19.22 69.9494 19.54 70.1654 19.948C70.3894 20.356 70.5134 20.828 70.5374 21.364C70.5454 21.492 70.5494 21.664 70.5494 21.88C70.5494 22.088 70.5454 22.26 70.5374 22.396C70.5134 22.924 70.3934 23.396 70.1774 23.812C69.9614 24.22 69.6494 24.54 69.2414 24.772C68.8334 25.004 68.3254 25.12 67.7174 25.12ZM67.7174 24.196C68.2134 24.196 68.6094 24.04 68.9054 23.728C69.2014 23.408 69.3614 22.944 69.3854 22.336C69.3934 22.216 69.3974 22.064 69.3974 21.88C69.3974 21.696 69.3934 21.544 69.3854 21.424C69.3614 20.816 69.2014 20.356 68.9054 20.044C68.6094 19.724 68.2134 19.564 67.7174 19.564C67.2214 19.564 66.8214 19.724 66.5174 20.044C66.2214 20.356 66.0654 20.816 66.0494 21.424C66.0414 21.544 66.0374 21.696 66.0374 21.88C66.0374 22.064 66.0414 22.216 66.0494 22.336C66.0654 22.944 66.2214 23.408 66.5174 23.728C66.8214 24.04 67.2214 24.196 67.7174 24.196ZM73.544 25C73.44 25 73.36 24.976 73.304 24.928C73.248 24.872 73.2 24.796 73.16 24.7L71.456 19.132C71.44 19.092 71.432 19.052 71.432 19.012C71.432 18.94 71.456 18.88 71.504 18.832C71.56 18.784 71.62 18.76 71.684 18.76H72.212C72.3 18.76 72.368 18.784 72.416 18.832C72.464 18.88 72.496 18.924 72.512 18.964L73.844 23.488L75.272 19.012C75.288 18.956 75.32 18.9 75.368 18.844C75.424 18.788 75.504 18.76 75.608 18.76H76.016C76.12 18.76 76.2 18.788 76.256 18.844C76.312 18.9 76.344 18.956 76.352 19.012L77.78 23.488L79.112 18.964C79.12 18.924 79.148 18.88 79.196 18.832C79.244 18.784 79.312 18.76 79.4 18.76H79.928C80 18.76 80.06 18.784 80.108 18.832C80.156 18.88 80.18 18.94 80.18 19.012C80.18 19.052 80.172 19.092 80.156 19.132L78.452 24.7C78.428 24.796 78.384 24.872 78.32 24.928C78.264 24.976 78.18 25 78.068 25H77.6C77.496 25 77.408 24.976 77.336 24.928C77.272 24.872 77.228 24.796 77.204 24.7L75.812 20.404L74.42 24.7C74.388 24.796 74.34 24.872 74.276 24.928C74.212 24.976 74.124 25 74.012 25H73.544ZM81.7851 25C81.7051 25 81.6371 24.976 81.5811 24.928C81.5331 24.872 81.5091 24.804 81.5091 24.724V19.036C81.5091 18.956 81.5331 18.892 81.5811 18.844C81.6371 18.788 81.7051 18.76 81.7851 18.76H82.3491C82.4291 18.76 82.4931 18.788 82.5411 18.844C82.5971 18.892 82.6251 18.956 82.6251 19.036V19.564C82.8331 19.292 83.0931 19.072 83.4051 18.904C83.7251 18.728 84.1331 18.64 84.6291 18.64C85.1491 18.64 85.5891 18.756 85.9491 18.988C86.3171 19.212 86.5931 19.528 86.7771 19.936C86.9611 20.336 87.0531 20.804 87.0531 21.34V24.724C87.0531 24.804 87.0291 24.872 86.9811 24.928C86.9331 24.976 86.8691 25 86.7891 25H86.1891C86.1091 25 86.0411 24.976 85.9851 24.928C85.9371 24.872 85.9131 24.804 85.9131 24.724V21.4C85.9131 20.84 85.7771 20.404 85.5051 20.092C85.2331 19.772 84.8331 19.612 84.3051 19.612C83.8091 19.612 83.4091 19.772 83.1051 20.092C82.8091 20.404 82.6611 20.84 82.6611 21.4V24.724C82.6611 24.804 82.6331 24.872 82.5771 24.928C82.5291 24.976 82.4651 25 82.3851 25H81.7851ZM89.0744 25C88.9944 25 88.9264 24.976 88.8704 24.928C88.8224 24.872 88.7984 24.804 88.7984 24.724V16.756C88.7984 16.676 88.8224 16.612 88.8704 16.564C88.9264 16.508 88.9944 16.48 89.0744 16.48H89.6384C89.7264 16.48 89.7944 16.508 89.8424 16.564C89.8904 16.612 89.9144 16.676 89.9144 16.756V24.724C89.9144 24.804 89.8904 24.872 89.8424 24.928C89.7944 24.976 89.7264 25 89.6384 25H89.0744ZM94.2604 25.12C93.6524 25.12 93.1444 25.004 92.7364 24.772C92.3284 24.54 92.0164 24.22 91.8004 23.812C91.5844 23.396 91.4644 22.924 91.4404 22.396C91.4324 22.26 91.4284 22.088 91.4284 21.88C91.4284 21.664 91.4324 21.492 91.4404 21.364C91.4644 20.828 91.5844 20.356 91.8004 19.948C92.0244 19.54 92.3404 19.22 92.7484 18.988C93.1564 18.756 93.6604 18.64 94.2604 18.64C94.8604 18.64 95.3644 18.756 95.7724 18.988C96.1804 19.22 96.4924 19.54 96.7084 19.948C96.9324 20.356 97.0564 20.828 97.0804 21.364C97.0884 21.492 97.0924 21.664 97.0924 21.88C97.0924 22.088 97.0884 22.26 97.0804 22.396C97.0564 22.924 96.9364 23.396 96.7204 23.812C96.5044 24.22 96.1924 24.54 95.7844 24.772C95.3764 25.004 94.8684 25.12 94.2604 25.12ZM94.2604 24.196C94.7564 24.196 95.1524 24.04 95.4484 23.728C95.7444 23.408 95.9044 22.944 95.9284 22.336C95.9364 22.216 95.9404 22.064 95.9404 21.88C95.9404 21.696 95.9364 21.544 95.9284 21.424C95.9044 20.816 95.7444 20.356 95.4484 20.044C95.1524 19.724 94.7564 19.564 94.2604 19.564C93.7644 19.564 93.3644 19.724 93.0604 20.044C92.7644 20.356 92.6084 20.816 92.5924 21.424C92.5844 21.544 92.5804 21.696 92.5804 21.88C92.5804 22.064 92.5844 22.216 92.5924 22.336C92.6084 22.944 92.7644 23.408 93.0604 23.728C93.3644 24.04 93.7644 24.196 94.2604 24.196ZM100.335 25.12C99.935 25.12 99.571 25.04 99.243 24.88C98.915 24.72 98.651 24.504 98.451 24.232C98.251 23.96 98.151 23.652 98.151 23.308C98.151 22.756 98.375 22.316 98.823 21.988C99.271 21.66 99.855 21.444 100.575 21.34L102.363 21.088V20.74C102.363 20.356 102.251 20.056 102.027 19.84C101.811 19.624 101.455 19.516 100.959 19.516C100.599 19.516 100.307 19.588 100.083 19.732C99.867 19.876 99.715 20.06 99.627 20.284C99.579 20.404 99.495 20.464 99.375 20.464H98.835C98.747 20.464 98.679 20.44 98.631 20.392C98.591 20.336 98.571 20.272 98.571 20.2C98.571 20.08 98.615 19.932 98.703 19.756C98.799 19.58 98.943 19.408 99.135 19.24C99.327 19.072 99.571 18.932 99.867 18.82C100.171 18.7 100.539 18.64 100.971 18.64C101.451 18.64 101.855 18.704 102.183 18.832C102.511 18.952 102.767 19.116 102.951 19.324C103.143 19.532 103.279 19.768 103.359 20.032C103.447 20.296 103.491 20.564 103.491 20.836V24.724C103.491 24.804 103.463 24.872 103.407 24.928C103.359 24.976 103.295 25 103.215 25H102.663C102.575 25 102.507 24.976 102.459 24.928C102.411 24.872 102.387 24.804 102.387 24.724V24.208C102.283 24.352 102.143 24.496 101.967 24.64C101.791 24.776 101.571 24.892 101.307 24.988C101.043 25.076 100.719 25.12 100.335 25.12ZM100.587 24.22C100.915 24.22 101.215 24.152 101.487 24.016C101.759 23.872 101.971 23.652 102.123 23.356C102.283 23.06 102.363 22.688 102.363 22.24V21.904L100.971 22.108C100.403 22.188 99.975 22.324 99.687 22.516C99.399 22.7 99.255 22.936 99.255 23.224C99.255 23.448 99.319 23.636 99.447 23.788C99.583 23.932 99.751 24.04 99.951 24.112C100.159 24.184 100.371 24.22 100.587 24.22ZM107.496 25.12C107.056 25.12 106.676 25.044 106.356 24.892C106.036 24.732 105.772 24.52 105.564 24.256C105.364 23.984 105.212 23.676 105.108 23.332C105.012 22.988 104.956 22.624 104.94 22.24C104.932 22.112 104.928 21.992 104.928 21.88C104.928 21.768 104.932 21.648 104.94 21.52C104.956 21.144 105.012 20.784 105.108 20.44C105.212 20.096 105.364 19.788 105.564 19.516C105.772 19.244 106.036 19.032 106.356 18.88C106.676 18.72 107.056 18.64 107.496 18.64C107.968 18.64 108.36 18.724 108.672 18.892C108.984 19.06 109.24 19.268 109.44 19.516V16.756C109.44 16.676 109.464 16.612 109.512 16.564C109.568 16.508 109.636 16.48 109.716 16.48H110.292C110.372 16.48 110.436 16.508 110.484 16.564C110.54 16.612 110.568 16.676 110.568 16.756V24.724C110.568 24.804 110.54 24.872 110.484 24.928C110.436 24.976 110.372 25 110.292 25H109.752C109.664 25 109.596 24.976 109.548 24.928C109.5 24.872 109.476 24.804 109.476 24.724V24.22C109.276 24.476 109.016 24.692 108.696 24.868C108.376 25.036 107.976 25.12 107.496 25.12ZM107.748 24.148C108.148 24.148 108.468 24.056 108.708 23.872C108.948 23.688 109.128 23.456 109.248 23.176C109.368 22.888 109.432 22.596 109.44 22.3C109.448 22.172 109.452 22.02 109.452 21.844C109.452 21.66 109.448 21.504 109.44 21.376C109.432 21.096 109.364 20.82 109.236 20.548C109.116 20.276 108.932 20.052 108.684 19.876C108.444 19.7 108.132 19.612 107.748 19.612C107.34 19.612 107.016 19.704 106.776 19.888C106.536 20.064 106.364 20.3 106.26 20.596C106.156 20.884 106.096 21.196 106.08 21.532C106.072 21.764 106.072 21.996 106.08 22.228C106.096 22.564 106.156 22.88 106.26 23.176C106.364 23.464 106.536 23.7 106.776 23.884C107.016 24.06 107.34 24.148 107.748 24.148ZM117.15 25C117.03 25 116.934 24.972 116.862 24.916C116.798 24.86 116.746 24.788 116.706 24.7L114.486 19.132C114.47 19.092 114.462 19.052 114.462 19.012C114.462 18.94 114.486 18.88 114.534 18.832C114.582 18.784 114.642 18.76 114.714 18.76H115.29C115.378 18.76 115.446 18.784 115.494 18.832C115.542 18.88 115.57 18.924 115.578 18.964L117.414 23.692L119.238 18.964C119.254 18.924 119.282 18.88 119.322 18.832C119.37 18.784 119.438 18.76 119.526 18.76H120.114C120.178 18.76 120.234 18.784 120.282 18.832C120.338 18.88 120.366 18.94 120.366 19.012C120.366 19.052 120.358 19.092 120.342 19.132L118.11 24.7C118.078 24.788 118.026 24.86 117.954 24.916C117.89 24.972 117.794 25 117.666 25H117.15ZM121.898 25C121.818 25 121.75 24.976 121.694 24.928C121.646 24.872 121.622 24.804 121.622 24.724V19.036C121.622 18.956 121.646 18.892 121.694 18.844C121.75 18.788 121.818 18.76 121.898 18.76H122.474C122.554 18.76 122.618 18.788 122.666 18.844C122.714 18.892 122.738 18.956 122.738 19.036V24.724C122.738 24.804 122.714 24.872 122.666 24.928C122.618 24.976 122.554 25 122.474 25H121.898ZM121.802 17.596C121.722 17.596 121.654 17.572 121.598 17.524C121.55 17.468 121.526 17.4 121.526 17.32V16.672C121.526 16.592 121.55 16.528 121.598 16.48C121.654 16.424 121.722 16.396 121.802 16.396H122.558C122.638 16.396 122.702 16.424 122.75 16.48C122.806 16.528 122.834 16.592 122.834 16.672V17.32C122.834 17.4 122.806 17.468 122.75 17.524C122.702 17.572 122.638 17.596 122.558 17.596H121.802ZM126.269 25.12C125.869 25.12 125.505 25.04 125.177 24.88C124.849 24.72 124.585 24.504 124.385 24.232C124.185 23.96 124.085 23.652 124.085 23.308C124.085 22.756 124.309 22.316 124.757 21.988C125.205 21.66 125.789 21.444 126.509 21.34L128.297 21.088V20.74C128.297 20.356 128.185 20.056 127.961 19.84C127.745 19.624 127.389 19.516 126.893 19.516C126.533 19.516 126.241 19.588 126.017 19.732C125.801 19.876 125.649 20.06 125.561 20.284C125.513 20.404 125.429 20.464 125.309 20.464H124.769C124.681 20.464 124.613 20.44 124.565 20.392C124.525 20.336 124.505 20.272 124.505 20.2C124.505 20.08 124.549 19.932 124.637 19.756C124.733 19.58 124.877 19.408 125.069 19.24C125.261 19.072 125.505 18.932 125.801 18.82C126.105 18.7 126.473 18.64 126.905 18.64C127.385 18.64 127.789 18.704 128.117 18.832C128.445 18.952 128.701 19.116 128.885 19.324C129.077 19.532 129.213 19.768 129.293 20.032C129.381 20.296 129.425 20.564 129.425 20.836V24.724C129.425 24.804 129.397 24.872 129.341 24.928C129.293 24.976 129.229 25 129.149 25H128.597C128.509 25 128.441 24.976 128.393 24.928C128.345 24.872 128.321 24.804 128.321 24.724V24.208C128.217 24.352 128.077 24.496 127.901 24.64C127.725 24.776 127.505 24.892 127.241 24.988C126.977 25.076 126.653 25.12 126.269 25.12ZM126.521 24.22C126.849 24.22 127.149 24.152 127.421 24.016C127.693 23.872 127.905 23.652 128.057 23.356C128.217 23.06 128.297 22.688 128.297 22.24V21.904L126.905 22.108C126.337 22.188 125.909 22.324 125.621 22.516C125.333 22.7 125.189 22.936 125.189 23.224C125.189 23.448 125.253 23.636 125.381 23.788C125.517 23.932 125.685 24.04 125.885 24.112C126.093 24.184 126.305 24.22 126.521 24.22Z" fill="#007FFF"/>
<path d="M56.48 45C56.3947 45 56.3147 44.968 56.24 44.904C56.176 44.8293 56.144 44.7493 56.144 44.664C56.144 44.6107 56.1493 44.5627 56.16 44.52L59.92 34.248C59.952 34.1307 60.016 34.0293 60.112 33.944C60.2187 33.848 60.3627 33.8 60.544 33.8H62.912C63.0933 33.8 63.232 33.848 63.328 33.944C63.4347 34.0293 63.504 34.1307 63.536 34.248L67.28 44.52C67.3013 44.5627 67.312 44.6107 67.312 44.664C67.312 44.7493 67.2747 44.8293 67.2 44.904C67.136 44.968 67.056 45 66.96 45H64.992C64.832 45 64.7093 44.9627 64.624 44.888C64.5493 44.8027 64.5013 44.728 64.48 44.664L63.856 43.032H59.584L58.976 44.664C58.9547 44.728 58.9067 44.8027 58.832 44.888C58.7573 44.9627 58.6293 45 58.448 45H56.48ZM60.24 40.728H63.216L61.712 36.504L60.24 40.728ZM68.7971 48.04C68.6798 48.04 68.5838 48.0027 68.5091 47.928C68.4345 47.8533 68.3971 47.7573 68.3971 47.64V37.08C68.3971 36.9627 68.4345 36.8667 68.5091 36.792C68.5838 36.7173 68.6798 36.68 68.7971 36.68H70.6051C70.7118 36.68 70.8025 36.7173 70.8771 36.792C70.9625 36.8667 71.0051 36.9627 71.0051 37.08V37.672C71.2505 37.3413 71.5758 37.0693 71.9811 36.856C72.3865 36.632 72.8878 36.52 73.4851 36.52C74.0185 36.52 74.4878 36.6053 74.8931 36.776C75.2985 36.936 75.6451 37.176 75.9331 37.496C76.2211 37.816 76.4451 38.2053 76.6051 38.664C76.7758 39.1227 76.8718 39.6507 76.8931 40.248C76.9038 40.4613 76.9091 40.6587 76.9091 40.84C76.9091 41.0213 76.9038 41.2187 76.8931 41.432C76.8718 42.008 76.7811 42.5253 76.6211 42.984C76.4611 43.4427 76.2371 43.832 75.9491 44.152C75.6611 44.472 75.3091 44.7227 74.8931 44.904C74.4878 45.0747 74.0185 45.16 73.4851 45.16C72.9625 45.16 72.5038 45.0693 72.1091 44.888C71.7251 44.696 71.4051 44.4293 71.1491 44.088V47.64C71.1491 47.7573 71.1118 47.8533 71.0371 47.928C70.9625 48.0027 70.8665 48.04 70.7491 48.04H68.7971ZM72.6211 43.016C72.9838 43.016 73.2665 42.9413 73.4691 42.792C73.6718 42.6427 73.8158 42.44 73.9011 42.184C73.9971 41.928 74.0558 41.6453 74.0771 41.336C74.0985 41.0053 74.0985 40.6747 74.0771 40.344C74.0558 40.0347 73.9971 39.752 73.9011 39.496C73.8158 39.24 73.6718 39.0373 73.4691 38.888C73.2665 38.7387 72.9838 38.664 72.6211 38.664C72.2691 38.664 71.9865 38.744 71.7731 38.904C71.5598 39.0533 71.4051 39.2507 71.3091 39.496C71.2131 39.7413 71.1598 40.008 71.1491 40.296C71.1385 40.4987 71.1331 40.696 71.1331 40.888C71.1331 41.08 71.1385 41.2827 71.1491 41.496C71.1598 41.7627 71.2185 42.0133 71.3251 42.248C71.4318 42.472 71.5918 42.6587 71.8051 42.808C72.0185 42.9467 72.2905 43.016 72.6211 43.016ZM78.8909 48.04C78.7735 48.04 78.6775 48.0027 78.6029 47.928C78.5282 47.8533 78.4909 47.7573 78.4909 47.64V37.08C78.4909 36.9627 78.5282 36.8667 78.6029 36.792C78.6775 36.7173 78.7735 36.68 78.8909 36.68H80.6989C80.8055 36.68 80.8962 36.7173 80.9709 36.792C81.0562 36.8667 81.0989 36.9627 81.0989 37.08V37.672C81.3442 37.3413 81.6695 37.0693 82.0749 36.856C82.4802 36.632 82.9815 36.52 83.5789 36.52C84.1122 36.52 84.5815 36.6053 84.9869 36.776C85.3922 36.936 85.7389 37.176 86.0269 37.496C86.3149 37.816 86.5389 38.2053 86.6989 38.664C86.8695 39.1227 86.9655 39.6507 86.9869 40.248C86.9975 40.4613 87.0029 40.6587 87.0029 40.84C87.0029 41.0213 86.9975 41.2187 86.9869 41.432C86.9655 42.008 86.8749 42.5253 86.7149 42.984C86.5549 43.4427 86.3309 43.832 86.0429 44.152C85.7549 44.472 85.4029 44.7227 84.9869 44.904C84.5815 45.0747 84.1122 45.16 83.5789 45.16C83.0562 45.16 82.5975 45.0693 82.2029 44.888C81.8189 44.696 81.4989 44.4293 81.2429 44.088V47.64C81.2429 47.7573 81.2055 47.8533 81.1309 47.928C81.0562 48.0027 80.9602 48.04 80.8429 48.04H78.8909ZM82.7149 43.016C83.0775 43.016 83.3602 42.9413 83.5629 42.792C83.7655 42.6427 83.9095 42.44 83.9949 42.184C84.0909 41.928 84.1495 41.6453 84.1709 41.336C84.1922 41.0053 84.1922 40.6747 84.1709 40.344C84.1495 40.0347 84.0909 39.752 83.9949 39.496C83.9095 39.24 83.7655 39.0373 83.5629 38.888C83.3602 38.7387 83.0775 38.664 82.7149 38.664C82.3629 38.664 82.0802 38.744 81.8669 38.904C81.6535 39.0533 81.4989 39.2507 81.4029 39.496C81.3069 39.7413 81.2535 40.008 81.2429 40.296C81.2322 40.4987 81.2269 40.696 81.2269 40.888C81.2269 41.08 81.2322 41.2827 81.2429 41.496C81.2535 41.7627 81.3122 42.0133 81.4189 42.248C81.5255 42.472 81.6855 42.6587 81.8989 42.808C82.1122 42.9467 82.3842 43.016 82.7149 43.016ZM88.9846 45C88.8673 45 88.7713 44.9627 88.6966 44.888C88.622 44.8133 88.5846 44.7173 88.5846 44.6V34.04C88.5846 33.9227 88.622 33.8267 88.6966 33.752C88.7713 33.6773 88.8673 33.64 88.9846 33.64H90.8726C90.99 33.64 91.086 33.6773 91.1606 33.752C91.2353 33.8267 91.2726 33.9227 91.2726 34.04V44.6C91.2726 44.7173 91.2353 44.8133 91.1606 44.888C91.086 44.9627 90.99 45 90.8726 45H88.9846ZM97.0028 45.16C95.7441 45.16 94.7414 44.8187 93.9948 44.136C93.2481 43.4533 92.8588 42.44 92.8268 41.096C92.8268 41.0213 92.8268 40.9253 92.8268 40.808C92.8268 40.6907 92.8268 40.6 92.8268 40.536C92.8588 39.6933 93.0454 38.9733 93.3868 38.376C93.7388 37.768 94.2188 37.3093 94.8268 37C95.4454 36.68 96.1654 36.52 96.9868 36.52C97.9254 36.52 98.6988 36.7067 99.3068 37.08C99.9254 37.4533 100.389 37.96 100.699 38.6C101.008 39.24 101.163 39.9707 101.163 40.792V41.176C101.163 41.2933 101.12 41.3893 101.035 41.464C100.96 41.5387 100.869 41.576 100.763 41.576H95.6428C95.6428 41.5867 95.6428 41.6027 95.6428 41.624C95.6428 41.6453 95.6428 41.6667 95.6428 41.688C95.6534 41.9973 95.7068 42.28 95.8028 42.536C95.8988 42.792 96.0481 42.9947 96.2508 43.144C96.4534 43.2933 96.6988 43.368 96.9868 43.368C97.2001 43.368 97.3761 43.336 97.5148 43.272C97.6641 43.1973 97.7868 43.1173 97.8828 43.032C97.9788 42.936 98.0534 42.856 98.1068 42.792C98.2028 42.6853 98.2774 42.6213 98.3308 42.6C98.3948 42.568 98.4908 42.552 98.6188 42.552H100.603C100.709 42.552 100.795 42.584 100.859 42.648C100.933 42.7013 100.965 42.7813 100.955 42.888C100.944 43.0693 100.853 43.288 100.683 43.544C100.512 43.8 100.261 44.056 99.9308 44.312C99.6108 44.5573 99.2054 44.76 98.7148 44.92C98.2241 45.08 97.6534 45.16 97.0028 45.16ZM95.6428 39.992H98.3468V39.96C98.3468 39.6187 98.2934 39.32 98.1868 39.064C98.0908 38.808 97.9361 38.6107 97.7228 38.472C97.5201 38.3333 97.2748 38.264 96.9868 38.264C96.6988 38.264 96.4534 38.3333 96.2508 38.472C96.0588 38.6107 95.9094 38.808 95.8028 39.064C95.6961 39.32 95.6428 39.6187 95.6428 39.96V39.992ZM110.421 45.16C109.354 45.16 108.469 45.0107 107.765 44.712C107.061 44.4027 106.528 44.0027 106.165 43.512C105.802 43.0213 105.61 42.4987 105.589 41.944C105.589 41.8587 105.621 41.784 105.685 41.72C105.76 41.6453 105.845 41.608 105.941 41.608H107.957C108.106 41.608 108.218 41.6347 108.293 41.688C108.378 41.7413 108.453 41.8107 108.517 41.896C108.602 42.056 108.72 42.2107 108.869 42.36C109.029 42.5093 109.232 42.632 109.477 42.728C109.733 42.8133 110.048 42.856 110.421 42.856C111.04 42.856 111.504 42.76 111.813 42.568C112.133 42.376 112.293 42.1147 112.293 41.784C112.293 41.5493 112.208 41.3573 112.037 41.208C111.866 41.048 111.589 40.9093 111.205 40.792C110.832 40.664 110.33 40.536 109.701 40.408C108.89 40.2373 108.197 40.0187 107.621 39.752C107.056 39.4747 106.624 39.1173 106.325 38.68C106.026 38.232 105.877 37.6773 105.877 37.016C105.877 36.3653 106.058 35.784 106.421 35.272C106.794 34.76 107.312 34.36 107.973 34.072C108.634 33.784 109.418 33.64 110.325 33.64C111.061 33.64 111.706 33.736 112.261 33.928C112.826 34.12 113.301 34.376 113.685 34.696C114.069 35.016 114.357 35.3573 114.549 35.72C114.752 36.072 114.858 36.4187 114.869 36.76C114.869 36.8453 114.837 36.9253 114.773 37C114.709 37.064 114.629 37.096 114.533 37.096H112.421C112.304 37.096 112.202 37.0747 112.117 37.032C112.032 36.9893 111.957 36.92 111.893 36.824C111.829 36.5893 111.658 36.3867 111.381 36.216C111.114 36.0347 110.762 35.944 110.325 35.944C109.856 35.944 109.488 36.0293 109.221 36.2C108.965 36.36 108.837 36.6107 108.837 36.952C108.837 37.1653 108.906 37.352 109.045 37.512C109.194 37.672 109.434 37.8107 109.765 37.928C110.106 38.0453 110.57 38.168 111.157 38.296C112.128 38.4773 112.912 38.7067 113.509 38.984C114.106 39.2507 114.544 39.6027 114.821 40.04C115.098 40.4667 115.237 41.0053 115.237 41.656C115.237 42.3813 115.029 43.0107 114.613 43.544C114.208 44.0667 113.642 44.4667 112.917 44.744C112.192 45.0213 111.36 45.16 110.421 45.16ZM120.919 45C120.236 45 119.644 44.8933 119.143 44.68C118.652 44.456 118.273 44.1147 118.007 43.656C117.74 43.1867 117.607 42.584 117.607 41.848V38.776H116.359C116.241 38.776 116.14 38.7387 116.055 38.664C115.98 38.5893 115.943 38.4933 115.943 38.376V37.08C115.943 36.9627 115.98 36.8667 116.055 36.792C116.14 36.7173 116.241 36.68 116.359 36.68H117.607V34.04C117.607 33.9227 117.644 33.8267 117.719 33.752C117.804 33.6773 117.9 33.64 118.007 33.64H119.863C119.98 33.64 120.076 33.6773 120.151 33.752C120.225 33.8267 120.263 33.9227 120.263 34.04V36.68H122.263C122.38 36.68 122.476 36.7173 122.551 36.792C122.625 36.8667 122.663 36.9627 122.663 37.08V38.376C122.663 38.4933 122.625 38.5893 122.551 38.664C122.476 38.7387 122.38 38.776 122.263 38.776H120.263V41.624C120.263 41.9867 120.332 42.2747 120.471 42.488C120.609 42.7013 120.844 42.808 121.175 42.808H122.407C122.524 42.808 122.62 42.8453 122.695 42.92C122.769 42.9947 122.807 43.0907 122.807 43.208V44.6C122.807 44.7173 122.769 44.8133 122.695 44.888C122.62 44.9627 122.524 45 122.407 45H120.919ZM128.068 45.16C127.172 45.16 126.414 45.016 125.796 44.728C125.188 44.44 124.718 44.0293 124.388 43.496C124.068 42.952 123.886 42.3067 123.844 41.56C123.833 41.3467 123.828 41.1067 123.828 40.84C123.828 40.5627 123.833 40.3227 123.844 40.12C123.886 39.3627 124.078 38.7173 124.42 38.184C124.761 37.6507 125.236 37.24 125.844 36.952C126.462 36.664 127.204 36.52 128.068 36.52C128.942 36.52 129.684 36.664 130.292 36.952C130.91 37.24 131.39 37.6507 131.732 38.184C132.073 38.7173 132.265 39.3627 132.308 40.12C132.318 40.3227 132.324 40.5627 132.324 40.84C132.324 41.1067 132.318 41.3467 132.308 41.56C132.265 42.3067 132.078 42.952 131.748 43.496C131.428 44.0293 130.958 44.44 130.34 44.728C129.732 45.016 128.974 45.16 128.068 45.16ZM128.068 43.208C128.548 43.208 128.894 43.064 129.108 42.776C129.332 42.488 129.46 42.056 129.492 41.48C129.502 41.32 129.508 41.1067 129.508 40.84C129.508 40.5733 129.502 40.36 129.492 40.2C129.46 39.6347 129.332 39.208 129.108 38.92C128.894 38.6213 128.548 38.472 128.068 38.472C127.598 38.472 127.252 38.6213 127.028 38.92C126.804 39.208 126.681 39.6347 126.66 40.2C126.649 40.36 126.644 40.5733 126.644 40.84C126.644 41.1067 126.649 41.32 126.66 41.48C126.681 42.056 126.804 42.488 127.028 42.776C127.252 43.064 127.598 43.208 128.068 43.208ZM134.297 45C134.18 45 134.084 44.9627 134.009 44.888C133.934 44.8133 133.897 44.7173 133.897 44.6V37.08C133.897 36.9733 133.934 36.8827 134.009 36.808C134.084 36.7227 134.18 36.68 134.297 36.68H136.137C136.254 36.68 136.35 36.7227 136.425 36.808C136.5 36.8827 136.537 36.9733 136.537 37.08V37.72C136.825 37.3893 137.166 37.1333 137.561 36.952C137.966 36.7707 138.42 36.68 138.921 36.68H139.625C139.732 36.68 139.822 36.7173 139.897 36.792C139.982 36.8667 140.025 36.9627 140.025 37.08V38.728C140.025 38.8347 139.982 38.9307 139.897 39.016C139.822 39.0907 139.732 39.128 139.625 39.128H138.073C137.636 39.128 137.294 39.2507 137.049 39.496C136.814 39.7307 136.697 40.0667 136.697 40.504V44.6C136.697 44.7173 136.654 44.8133 136.569 44.888C136.494 44.9627 136.398 45 136.281 45H134.297ZM144.94 45.16C143.682 45.16 142.679 44.8187 141.932 44.136C141.186 43.4533 140.796 42.44 140.764 41.096C140.764 41.0213 140.764 40.9253 140.764 40.808C140.764 40.6907 140.764 40.6 140.764 40.536C140.796 39.6933 140.983 38.9733 141.324 38.376C141.676 37.768 142.156 37.3093 142.764 37C143.383 36.68 144.103 36.52 144.924 36.52C145.863 36.52 146.636 36.7067 147.244 37.08C147.863 37.4533 148.327 37.96 148.636 38.6C148.946 39.24 149.1 39.9707 149.1 40.792V41.176C149.1 41.2933 149.058 41.3893 148.972 41.464C148.898 41.5387 148.807 41.576 148.7 41.576H143.58C143.58 41.5867 143.58 41.6027 143.58 41.624C143.58 41.6453 143.58 41.6667 143.58 41.688C143.591 41.9973 143.644 42.28 143.74 42.536C143.836 42.792 143.986 42.9947 144.188 43.144C144.391 43.2933 144.636 43.368 144.924 43.368C145.138 43.368 145.314 43.336 145.452 43.272C145.602 43.1973 145.724 43.1173 145.82 43.032C145.916 42.936 145.991 42.856 146.044 42.792C146.14 42.6853 146.215 42.6213 146.268 42.6C146.332 42.568 146.428 42.552 146.556 42.552H148.54C148.647 42.552 148.732 42.584 148.796 42.648C148.871 42.7013 148.903 42.7813 148.892 42.888C148.882 43.0693 148.791 43.288 148.62 43.544C148.45 43.8 148.199 44.056 147.868 44.312C147.548 44.5573 147.143 44.76 146.652 44.92C146.162 45.08 145.591 45.16 144.94 45.16ZM143.58 39.992H146.284V39.96C146.284 39.6187 146.231 39.32 146.124 39.064C146.028 38.808 145.874 38.6107 145.66 38.472C145.458 38.3333 145.212 38.264 144.924 38.264C144.636 38.264 144.391 38.3333 144.188 38.472C143.996 38.6107 143.847 38.808 143.74 39.064C143.634 39.32 143.58 39.6187 143.58 39.96V39.992Z" fill="#007FFF"/>
<path d="M26.7018 42.4639C26.1434 42.0968 25.6486 41.6432 25.2363 41.1205C24.7827 40.581 24.3625 40.015 23.9779 39.4256C23.0753 38.1188 22.3675 36.6905 21.8761 35.1847C21.2858 33.4355 21 31.7589 21 30.119C21 28.2876 21.4009 26.6889 22.185 25.3455C22.7662 24.2955 23.6207 23.4181 24.6602 22.804C25.6675 22.1856 26.825 21.8472 28.0106 21.8244C28.4257 21.8244 28.8726 21.8839 29.3469 21.9976C29.6876 22.0929 30.1027 22.2434 30.6097 22.4305C31.2549 22.6763 31.6097 22.8267 31.7301 22.8634C32.108 22.9999 32.4257 23.0593 32.6752 23.0593C32.8646 23.0593 33.1319 22.9999 33.4354 22.9089C33.6062 22.8494 33.9283 22.7445 34.3894 22.5495C34.846 22.385 35.2053 22.2442 35.4911 22.1393C35.9292 22.0116 36.3531 21.8935 36.731 21.834C37.1789 21.7642 37.6336 21.7458 38.0858 21.7789C38.8696 21.8296 39.6415 21.9937 40.377 22.2661C41.5796 22.7445 42.5522 23.4914 43.2761 24.5531C42.9701 24.7395 42.683 24.9545 42.4186 25.1951C41.843 25.6994 41.3528 26.2914 40.9664 26.9486C40.4613 27.8469 40.1995 28.8588 40.2062 29.8864C40.2248 31.1484 40.5522 32.26 41.1973 33.2212C41.6716 33.9336 42.288 34.5428 43.0088 35.0115C43.3779 35.2573 43.6956 35.4261 44 35.5397C43.8575 35.977 43.7053 36.4003 43.5257 36.8201C43.1182 37.7616 42.6244 38.6641 42.0504 39.5165C41.5389 40.2503 41.1381 40.7969 40.8336 41.1607C40.3593 41.7161 39.9027 42.1403 39.4416 42.4359C38.9345 42.7682 38.3354 42.9458 37.7265 42.9458C37.3142 42.9614 36.902 42.9121 36.5053 42.7997C36.1646 42.686 35.8274 42.5627 35.4956 42.4219C35.1506 42.2653 34.7948 42.1329 34.431 42.0257C33.5316 41.7974 32.5886 41.7959 31.6885 42.0213C31.3195 42.1263 30.9646 42.2487 30.6142 42.3992C30.1212 42.6038 29.7938 42.7411 29.6044 42.7997C29.2265 42.909 28.8345 42.9773 28.4381 43C27.8248 43 27.2531 42.8268 26.6867 42.4761L26.7018 42.4639ZM34.7903 20.9358C33.9885 21.332 33.223 21.5008 32.4628 21.4457C32.3434 20.6892 32.4628 19.9152 32.7805 19.0677C33.051 18.3497 33.4507 17.686 33.9602 17.1086C34.4982 16.5008 35.1511 16.0026 35.8823 15.6419C36.6611 15.2458 37.4035 15.0315 38.1133 15C38.2053 15.7924 38.1133 16.5716 37.8186 17.4139C37.5459 18.1584 37.147 18.8516 36.6389 19.4639C36.1204 20.0726 35.4841 20.5727 34.7673 20.935L34.7903 20.9358Z" fill="#007FFF"/>
</svg>
