<svg width="176" height="64" viewBox="0 0 176 64" fill="none" xmlns="http://www.w3.org/2000/svg">
<rect x="0.75" y="0.75" width="174.5" height="62.5" rx="4.25" stroke="#007FFF" stroke-width="1.5"/>
<path d="M59.75 26H57.0568V17.2727H59.8693C60.7159 17.2727 61.4403 17.4474 62.0426 17.7969C62.6449 18.1435 63.1065 18.642 63.4276 19.2926C63.7486 19.9403 63.9091 20.7159 63.9091 21.6193C63.9091 22.5284 63.7472 23.3111 63.4233 23.9673C63.0994 24.6207 62.6278 25.1236 62.0085 25.4759C61.3892 25.8253 60.6364 26 59.75 26ZM58.1136 25.0625H59.6818C60.4034 25.0625 61.0014 24.9233 61.4759 24.6449C61.9503 24.3665 62.304 23.9702 62.5369 23.456C62.7699 22.9418 62.8864 22.3295 62.8864 21.6193C62.8864 20.9148 62.7713 20.3082 62.5412 19.7997C62.3111 19.2884 61.9673 18.8963 61.5099 18.6236C61.0526 18.348 60.483 18.2102 59.8011 18.2102H58.1136V25.0625ZM68.2045 26.1364C67.6136 26.1364 67.0952 25.9957 66.6491 25.7145C66.206 25.4332 65.8594 25.0398 65.6094 24.5341C65.3622 24.0284 65.2386 23.4375 65.2386 22.7614C65.2386 22.0795 65.3622 21.4844 65.6094 20.9759C65.8594 20.4673 66.206 20.0724 66.6491 19.7912C67.0952 19.5099 67.6136 19.3693 68.2045 19.3693C68.7955 19.3693 69.3125 19.5099 69.7557 19.7912C70.2017 20.0724 70.5483 20.4673 70.7955 20.9759C71.0455 21.4844 71.1705 22.0795 71.1705 22.7614C71.1705 23.4375 71.0455 24.0284 70.7955 24.5341C70.5483 25.0398 70.2017 25.4332 69.7557 25.7145C69.3125 25.9957 68.7955 26.1364 68.2045 26.1364ZM68.2045 25.233C68.6534 25.233 69.0227 25.1179 69.3125 24.8878C69.6023 24.6577 69.8168 24.3551 69.956 23.9801C70.0952 23.6051 70.1648 23.1989 70.1648 22.7614C70.1648 22.3239 70.0952 21.9162 69.956 21.5384C69.8168 21.1605 69.6023 20.8551 69.3125 20.6222C69.0227 20.3892 68.6534 20.2727 68.2045 20.2727C67.7557 20.2727 67.3864 20.3892 67.0966 20.6222C66.8068 20.8551 66.5923 21.1605 66.4531 21.5384C66.3139 21.9162 66.2443 22.3239 66.2443 22.7614C66.2443 23.1989 66.3139 23.6051 66.4531 23.9801C66.5923 24.3551 66.8068 24.6577 67.0966 24.8878C67.3864 25.1179 67.7557 25.233 68.2045 25.233ZM73.9659 26L71.9716 19.4545H73.0284L74.4432 24.4659H74.5114L75.9091 19.4545H76.983L78.3636 24.4489H78.4318L79.8466 19.4545H80.9034L78.9091 26H77.9205L76.4886 20.9716H76.3864L74.9545 26H73.9659ZM83.2386 22.0625V26H82.233V19.4545H83.2045V20.4773H83.2898C83.4432 20.1449 83.6761 19.8778 83.9886 19.6761C84.3011 19.4716 84.7045 19.3693 85.1989 19.3693C85.642 19.3693 86.0298 19.4602 86.3622 19.642C86.6946 19.821 86.9531 20.0938 87.1378 20.4602C87.3224 20.8239 87.4148 21.2841 87.4148 21.8409V26H86.4091V21.9091C86.4091 21.3949 86.2756 20.9943 86.0085 20.7074C85.7415 20.4176 85.375 20.2727 84.9091 20.2727C84.5881 20.2727 84.3011 20.3423 84.0483 20.4815C83.7983 20.6207 83.6009 20.8239 83.456 21.0909C83.3111 21.358 83.2386 21.6818 83.2386 22.0625ZM90.2582 17.2727V26H89.2525V17.2727H90.2582ZM94.7592 26.1364C94.1683 26.1364 93.6499 25.9957 93.2038 25.7145C92.7607 25.4332 92.4141 25.0398 92.1641 24.5341C91.9169 24.0284 91.7933 23.4375 91.7933 22.7614C91.7933 22.0795 91.9169 21.4844 92.1641 20.9759C92.4141 20.4673 92.7607 20.0724 93.2038 19.7912C93.6499 19.5099 94.1683 19.3693 94.7592 19.3693C95.3501 19.3693 95.8672 19.5099 96.3104 19.7912C96.7564 20.0724 97.103 20.4673 97.3501 20.9759C97.6001 21.4844 97.7251 22.0795 97.7251 22.7614C97.7251 23.4375 97.6001 24.0284 97.3501 24.5341C97.103 25.0398 96.7564 25.4332 96.3104 25.7145C95.8672 25.9957 95.3501 26.1364 94.7592 26.1364ZM94.7592 25.233C95.2081 25.233 95.5774 25.1179 95.8672 24.8878C96.157 24.6577 96.3714 24.3551 96.5107 23.9801C96.6499 23.6051 96.7195 23.1989 96.7195 22.7614C96.7195 22.3239 96.6499 21.9162 96.5107 21.5384C96.3714 21.1605 96.157 20.8551 95.8672 20.6222C95.5774 20.3892 95.2081 20.2727 94.7592 20.2727C94.3104 20.2727 93.9411 20.3892 93.6513 20.6222C93.3615 20.8551 93.147 21.1605 93.0078 21.5384C92.8686 21.9162 92.799 22.3239 92.799 22.7614C92.799 23.1989 92.8686 23.6051 93.0078 23.9801C93.147 24.3551 93.3615 24.6577 93.6513 24.8878C93.9411 25.1179 94.3104 25.233 94.7592 25.233ZM101.186 26.1534C100.772 26.1534 100.395 26.0753 100.057 25.919C99.7191 25.7599 99.4506 25.5312 99.2518 25.233C99.0529 24.9318 98.9535 24.5682 98.9535 24.142C98.9535 23.767 99.0273 23.4631 99.1751 23.2301C99.3228 22.9943 99.5202 22.8097 99.7674 22.6761C100.015 22.5426 100.287 22.4432 100.586 22.3778C100.887 22.3097 101.189 22.2557 101.493 22.2159C101.891 22.1648 102.213 22.1264 102.461 22.1009C102.711 22.0724 102.892 22.0256 103.006 21.9602C103.123 21.8949 103.181 21.7812 103.181 21.6193V21.5852C103.181 21.1648 103.066 20.8381 102.836 20.6051C102.608 20.3722 102.263 20.2557 101.8 20.2557C101.32 20.2557 100.944 20.3608 100.671 20.571C100.398 20.7812 100.206 21.0057 100.096 21.2443L99.141 20.9034C99.3114 20.5057 99.5387 20.196 99.8228 19.9744C100.11 19.75 100.422 19.5937 100.76 19.5057C101.101 19.4148 101.436 19.3693 101.766 19.3693C101.976 19.3693 102.218 19.3949 102.49 19.446C102.766 19.4943 103.032 19.5952 103.287 19.7486C103.546 19.902 103.76 20.1335 103.931 20.4432C104.101 20.7528 104.186 21.1676 104.186 21.6875V26H103.181V25.1136H103.13C103.061 25.2557 102.948 25.4077 102.789 25.5696C102.63 25.7315 102.418 25.8693 102.154 25.983C101.89 26.0966 101.567 26.1534 101.186 26.1534ZM101.34 25.25C101.738 25.25 102.073 25.1719 102.346 25.0156C102.621 24.8594 102.828 24.6577 102.968 24.4105C103.11 24.1634 103.181 23.9034 103.181 23.6307V22.7102C103.138 22.7614 103.044 22.8082 102.9 22.8509C102.757 22.8906 102.593 22.9261 102.405 22.9574C102.221 22.9858 102.04 23.0114 101.864 23.0341C101.691 23.054 101.55 23.071 101.442 23.0852C101.181 23.1193 100.936 23.1747 100.709 23.2514C100.485 23.3253 100.303 23.4375 100.164 23.5881C100.027 23.7358 99.9592 23.9375 99.9592 24.1932C99.9592 24.5426 100.088 24.8068 100.347 24.9858C100.608 25.1619 100.939 25.25 101.34 25.25ZM108.494 26.1364C107.948 26.1364 107.467 25.9986 107.049 25.723C106.631 25.4446 106.305 25.0526 106.069 24.5469C105.833 24.0384 105.715 23.4375 105.715 22.7443C105.715 22.0568 105.833 21.4602 106.069 20.9545C106.305 20.4489 106.633 20.0582 107.053 19.7827C107.474 19.5071 107.96 19.3693 108.511 19.3693C108.937 19.3693 109.273 19.4403 109.521 19.5824C109.771 19.7216 109.961 19.8807 110.092 20.0597C110.225 20.2358 110.329 20.3807 110.403 20.4943H110.488V17.2727H111.494V26H110.522V24.9943H110.403C110.329 25.1136 110.224 25.2642 110.087 25.446C109.951 25.625 109.756 25.7855 109.504 25.9276C109.251 26.0668 108.914 26.1364 108.494 26.1364ZM108.63 25.233C109.033 25.233 109.374 25.1278 109.653 24.9176C109.931 24.7045 110.143 24.4105 110.288 24.0355C110.433 23.6577 110.505 23.2216 110.505 22.7273C110.505 22.2386 110.434 21.8111 110.292 21.4446C110.15 21.0753 109.94 20.7884 109.661 20.5838C109.383 20.3764 109.039 20.2727 108.63 20.2727C108.204 20.2727 107.849 20.3821 107.565 20.6009C107.283 20.8168 107.072 21.1108 106.93 21.483C106.79 21.8523 106.721 22.267 106.721 22.7273C106.721 23.1932 106.792 23.6165 106.934 23.9972C107.079 24.375 107.292 24.6761 107.573 24.9006C107.857 25.1222 108.21 25.233 108.63 25.233ZM122.202 19.4545L119.782 26H118.759L116.339 19.4545H117.43L119.237 24.6705H119.305L121.112 19.4545H122.202ZM123.53 26V19.4545H124.536V26H123.53ZM124.041 18.3636C123.845 18.3636 123.676 18.2969 123.534 18.1634C123.395 18.0298 123.325 17.8693 123.325 17.6818C123.325 17.4943 123.395 17.3338 123.534 17.2003C123.676 17.0668 123.845 17 124.041 17C124.237 17 124.405 17.0668 124.544 17.2003C124.686 17.3338 124.757 17.4943 124.757 17.6818C124.757 17.8693 124.686 18.0298 124.544 18.1634C124.405 18.2969 124.237 18.3636 124.041 18.3636ZM128.304 26.1534C127.889 26.1534 127.512 26.0753 127.174 25.919C126.836 25.7599 126.568 25.5312 126.369 25.233C126.17 24.9318 126.071 24.5682 126.071 24.142C126.071 23.767 126.145 23.4631 126.292 23.2301C126.44 22.9943 126.637 22.8097 126.885 22.6761C127.132 22.5426 127.404 22.4432 127.703 22.3778C128.004 22.3097 128.306 22.2557 128.61 22.2159C129.008 22.1648 129.331 22.1264 129.578 22.1009C129.828 22.0724 130.01 22.0256 130.123 21.9602C130.24 21.8949 130.298 21.7812 130.298 21.6193V21.5852C130.298 21.1648 130.183 20.8381 129.953 20.6051C129.725 20.3722 129.38 20.2557 128.917 20.2557C128.437 20.2557 128.061 20.3608 127.788 20.571C127.515 20.7812 127.324 21.0057 127.213 21.2443L126.258 20.9034C126.429 20.5057 126.656 20.196 126.94 19.9744C127.227 19.75 127.539 19.5937 127.877 19.5057C128.218 19.4148 128.554 19.3693 128.883 19.3693C129.093 19.3693 129.335 19.3949 129.608 19.446C129.883 19.4943 130.149 19.5952 130.404 19.7486C130.663 19.902 130.877 20.1335 131.048 20.4432C131.218 20.7528 131.304 21.1676 131.304 21.6875V26H130.298V25.1136H130.247C130.179 25.2557 130.065 25.4077 129.906 25.5696C129.747 25.7315 129.535 25.8693 129.271 25.983C129.007 26.0966 128.684 26.1534 128.304 26.1534ZM128.457 25.25C128.855 25.25 129.19 25.1719 129.463 25.0156C129.738 24.8594 129.946 24.6577 130.085 24.4105C130.227 24.1634 130.298 23.9034 130.298 23.6307V22.7102C130.255 22.7614 130.162 22.8082 130.017 22.8509C129.875 22.8906 129.71 22.9261 129.522 22.9574C129.338 22.9858 129.157 23.0114 128.981 23.0341C128.808 23.054 128.667 23.071 128.559 23.0852C128.298 23.1193 128.054 23.1747 127.826 23.2514C127.602 23.3253 127.42 23.4375 127.281 23.5881C127.145 23.7358 127.076 23.9375 127.076 24.1932C127.076 24.5426 127.206 24.8068 127.464 24.9858C127.725 25.1619 128.056 25.25 128.457 25.25Z" fill="#007FFF"/>
<path d="M64.7273 37.125C64.6477 36.8485 64.536 36.6042 64.392 36.392C64.2481 36.1761 64.072 35.9943 63.8636 35.8466C63.6591 35.6951 63.4242 35.5795 63.1591 35.5C62.8977 35.4205 62.608 35.3807 62.2898 35.3807C61.6951 35.3807 61.1723 35.5284 60.7216 35.8239C60.2746 36.1193 59.9261 36.5492 59.6761 37.1136C59.4261 37.6742 59.3011 38.3598 59.3011 39.1705C59.3011 39.9811 59.4242 40.6705 59.6705 41.2386C59.9167 41.8068 60.2652 42.2405 60.7159 42.5398C61.1667 42.8352 61.6989 42.983 62.3125 42.983C62.8693 42.983 63.3447 42.8845 63.7386 42.6875C64.1364 42.4867 64.4394 42.2045 64.6477 41.8409C64.8598 41.4773 64.9659 41.0473 64.9659 40.5511L65.4659 40.625H62.4659V38.7727H67.3352V40.2386C67.3352 41.2614 67.1193 42.1402 66.6875 42.875C66.2557 43.6061 65.661 44.1705 64.9034 44.5682C64.1458 44.9621 63.2784 45.1591 62.3011 45.1591C61.2102 45.1591 60.2519 44.9186 59.4261 44.4375C58.6004 43.9527 57.9564 43.2652 57.4943 42.375C57.036 41.4811 56.8068 40.4205 56.8068 39.1932C56.8068 38.25 56.9432 37.4091 57.2159 36.6705C57.4924 35.928 57.8788 35.2992 58.375 34.7841C58.8712 34.2689 59.4489 33.8769 60.108 33.608C60.767 33.339 61.4811 33.2045 62.25 33.2045C62.9091 33.2045 63.5227 33.3011 64.0909 33.4943C64.6591 33.6837 65.1629 33.9527 65.6023 34.3011C66.0455 34.6496 66.4072 35.0644 66.6875 35.5455C66.9678 36.0227 67.1477 36.5492 67.2273 37.125H64.7273ZM73.081 45.1705C72.1984 45.1705 71.4351 44.983 70.7912 44.608C70.151 44.2292 69.6567 43.7027 69.3082 43.0284C68.9598 42.3504 68.7855 41.5644 68.7855 40.6705C68.7855 39.7689 68.9598 38.9811 69.3082 38.3068C69.6567 37.6288 70.151 37.1023 70.7912 36.7273C71.4351 36.3485 72.1984 36.1591 73.081 36.1591C73.9635 36.1591 74.7249 36.3485 75.3651 36.7273C76.009 37.1023 76.5052 37.6288 76.8537 38.3068C77.2022 38.9811 77.3764 39.7689 77.3764 40.6705C77.3764 41.5644 77.2022 42.3504 76.8537 43.0284C76.5052 43.7027 76.009 44.2292 75.3651 44.608C74.7249 44.983 73.9635 45.1705 73.081 45.1705ZM73.0923 43.2955C73.4938 43.2955 73.8291 43.1818 74.098 42.9545C74.367 42.7235 74.5696 42.4091 74.706 42.0114C74.8461 41.6136 74.9162 41.161 74.9162 40.6534C74.9162 40.1458 74.8461 39.6932 74.706 39.2955C74.5696 38.8977 74.367 38.5833 74.098 38.3523C73.8291 38.1212 73.4938 38.0057 73.0923 38.0057C72.687 38.0057 72.3461 38.1212 72.0696 38.3523C71.7969 38.5833 71.5904 38.8977 71.4503 39.2955C71.3139 39.6932 71.2457 40.1458 71.2457 40.6534C71.2457 41.161 71.3139 41.6136 71.4503 42.0114C71.5904 42.4091 71.7969 42.7235 72.0696 42.9545C72.3461 43.1818 72.687 43.2955 73.0923 43.2955ZM82.8935 45.1705C82.0109 45.1705 81.2476 44.983 80.6037 44.608C79.9635 44.2292 79.4692 43.7027 79.1207 43.0284C78.7723 42.3504 78.598 41.5644 78.598 40.6705C78.598 39.7689 78.7723 38.9811 79.1207 38.3068C79.4692 37.6288 79.9635 37.1023 80.6037 36.7273C81.2476 36.3485 82.0109 36.1591 82.8935 36.1591C83.776 36.1591 84.5374 36.3485 85.1776 36.7273C85.8215 37.1023 86.3177 37.6288 86.6662 38.3068C87.0147 38.9811 87.1889 39.7689 87.1889 40.6705C87.1889 41.5644 87.0147 42.3504 86.6662 43.0284C86.3177 43.7027 85.8215 44.2292 85.1776 44.608C84.5374 44.983 83.776 45.1705 82.8935 45.1705ZM82.9048 43.2955C83.3063 43.2955 83.6416 43.1818 83.9105 42.9545C84.1795 42.7235 84.3821 42.4091 84.5185 42.0114C84.6586 41.6136 84.7287 41.161 84.7287 40.6534C84.7287 40.1458 84.6586 39.6932 84.5185 39.2955C84.3821 38.8977 84.1795 38.5833 83.9105 38.3523C83.6416 38.1212 83.3063 38.0057 82.9048 38.0057C82.4995 38.0057 82.1586 38.1212 81.8821 38.3523C81.6094 38.5833 81.4029 38.8977 81.2628 39.2955C81.1264 39.6932 81.0582 40.1458 81.0582 40.6534C81.0582 41.161 81.1264 41.6136 81.2628 42.0114C81.4029 42.4091 81.6094 42.7235 81.8821 42.9545C82.1586 43.1818 82.4995 43.2955 82.9048 43.2955ZM92.6946 48.4545C91.9105 48.4545 91.2382 48.3466 90.6776 48.1307C90.1207 47.9186 89.6776 47.6288 89.348 47.2614C89.0185 46.8939 88.8045 46.4811 88.706 46.0227L90.9446 45.7216C91.0128 45.8958 91.1207 46.0587 91.2685 46.2102C91.4162 46.3617 91.6113 46.483 91.8537 46.5739C92.0999 46.6686 92.3991 46.7159 92.7514 46.7159C93.2779 46.7159 93.7116 46.5871 94.0526 46.3295C94.3973 46.0758 94.5696 45.6496 94.5696 45.0511V43.4545H94.4673C94.3613 43.697 94.2022 43.9261 93.9901 44.142C93.7779 44.358 93.5052 44.5341 93.1719 44.6705C92.8385 44.8068 92.4408 44.875 91.9787 44.875C91.3234 44.875 90.7268 44.7235 90.1889 44.4205C89.6548 44.1136 89.2287 43.6458 88.9105 43.017C88.5961 42.3845 88.4389 41.5852 88.4389 40.6193C88.4389 39.6307 88.5999 38.8049 88.9219 38.142C89.2438 37.4792 89.6719 36.983 90.206 36.6534C90.7438 36.3239 91.3329 36.1591 91.973 36.1591C92.4616 36.1591 92.8707 36.2424 93.2003 36.4091C93.5298 36.572 93.795 36.7765 93.9957 37.0227C94.2003 37.2652 94.3575 37.5038 94.4673 37.7386H94.5582V36.2727H96.9616V45.0852C96.9616 45.8277 96.7798 46.4489 96.4162 46.9489C96.0526 47.4489 95.5488 47.8239 94.9048 48.0739C94.2647 48.3277 93.5279 48.4545 92.6946 48.4545ZM92.7457 43.0568C93.1359 43.0568 93.4654 42.9602 93.7344 42.767C94.0071 42.5701 94.2154 42.2898 94.3594 41.9261C94.5071 41.5587 94.581 41.1193 94.581 40.608C94.581 40.0966 94.509 39.6534 94.3651 39.2784C94.2211 38.8996 94.0128 38.6061 93.7401 38.3977C93.4673 38.1894 93.1359 38.0852 92.7457 38.0852C92.348 38.0852 92.0128 38.1932 91.7401 38.4091C91.4673 38.6212 91.2609 38.9167 91.1207 39.2955C90.9806 39.6742 90.9105 40.1117 90.9105 40.608C90.9105 41.1117 90.9806 41.5473 91.1207 41.9148C91.2647 42.2784 91.4711 42.5606 91.7401 42.7614C92.0128 42.9583 92.348 43.0568 92.7457 43.0568ZM101.308 33.3636V45H98.8878V33.3636H101.308ZM107.224 45.1705C106.327 45.1705 105.554 44.9886 104.906 44.625C104.262 44.2576 103.766 43.7386 103.418 43.0682C103.069 42.3939 102.895 41.5966 102.895 40.6761C102.895 39.7784 103.069 38.9905 103.418 38.3125C103.766 37.6345 104.257 37.1061 104.889 36.7273C105.526 36.3485 106.272 36.1591 107.128 36.1591C107.704 36.1591 108.24 36.2519 108.736 36.4375C109.236 36.6193 109.671 36.8939 110.043 37.2614C110.418 37.6288 110.709 38.0909 110.918 38.6477C111.126 39.2008 111.23 39.8485 111.23 40.5909V41.2557H103.861V39.7557H108.952C108.952 39.4072 108.876 39.0985 108.724 38.8295C108.573 38.5606 108.363 38.3504 108.094 38.1989C107.829 38.0436 107.52 37.9659 107.168 37.9659C106.8 37.9659 106.474 38.0511 106.19 38.2216C105.91 38.3883 105.69 38.6136 105.531 38.8977C105.372 39.178 105.291 39.4905 105.287 39.8352V41.2614C105.287 41.6932 105.366 42.0663 105.526 42.3807C105.688 42.6951 105.918 42.9375 106.213 43.108C106.509 43.2784 106.859 43.3636 107.264 43.3636C107.533 43.3636 107.779 43.3258 108.003 43.25C108.226 43.1742 108.418 43.0606 108.577 42.9091C108.736 42.7576 108.857 42.572 108.94 42.3523L111.179 42.5C111.065 43.0379 110.832 43.5076 110.48 43.9091C110.132 44.3068 109.681 44.6174 109.128 44.8409C108.579 45.0606 107.944 45.1705 107.224 45.1705ZM116.558 45V33.3636H121.149C122.032 33.3636 122.784 33.5322 123.405 33.8693C124.026 34.2027 124.5 34.6667 124.825 35.2614C125.155 35.8523 125.32 36.5341 125.32 37.3068C125.32 38.0795 125.153 38.7614 124.82 39.3523C124.486 39.9432 124.003 40.4034 123.371 40.733C122.742 41.0625 121.981 41.2273 121.087 41.2273H118.161V39.2557H120.689C121.162 39.2557 121.553 39.1742 121.859 39.0114C122.17 38.8447 122.401 38.6155 122.553 38.3239C122.708 38.0284 122.786 37.6894 122.786 37.3068C122.786 36.9205 122.708 36.5833 122.553 36.2955C122.401 36.0038 122.17 35.7784 121.859 35.6193C121.549 35.4564 121.155 35.375 120.678 35.375H119.018V45H116.558ZM129.293 33.3636V45H126.872V33.3636H129.293ZM133.72 45.1648C133.163 45.1648 132.667 45.0682 132.232 44.875C131.796 44.678 131.451 44.3883 131.197 44.0057C130.947 43.6193 130.822 43.1383 130.822 42.5625C130.822 42.0777 130.911 41.6705 131.089 41.3409C131.268 41.0114 131.51 40.7462 131.817 40.5455C132.124 40.3447 132.472 40.1932 132.862 40.0909C133.256 39.9886 133.669 39.9167 134.101 39.875C134.608 39.822 135.018 39.7727 135.328 39.7273C135.639 39.678 135.864 39.6061 136.004 39.5114C136.144 39.4167 136.214 39.2765 136.214 39.0909V39.0568C136.214 38.697 136.101 38.4186 135.874 38.2216C135.65 38.0246 135.332 37.9261 134.919 37.9261C134.483 37.9261 134.137 38.0227 133.879 38.2159C133.622 38.4053 133.451 38.6439 133.368 38.9318L131.129 38.75C131.243 38.2197 131.466 37.7614 131.8 37.375C132.133 36.9848 132.563 36.6856 133.089 36.4773C133.62 36.2652 134.233 36.1591 134.93 36.1591C135.415 36.1591 135.879 36.2159 136.322 36.3295C136.769 36.4432 137.165 36.6193 137.51 36.858C137.858 37.0966 138.133 37.4034 138.334 37.7784C138.535 38.1496 138.635 38.5947 138.635 39.1136V45H136.339V43.7898H136.271C136.131 44.0625 135.944 44.303 135.709 44.5114C135.474 44.7159 135.192 44.8769 134.862 44.9943C134.533 45.108 134.152 45.1648 133.72 45.1648ZM134.413 43.4943C134.769 43.4943 135.084 43.4242 135.357 43.2841C135.629 43.1402 135.843 42.947 135.999 42.7045C136.154 42.4621 136.232 42.1875 136.232 41.8807V40.9545C136.156 41.0038 136.052 41.0492 135.919 41.0909C135.79 41.1288 135.644 41.1648 135.482 41.1989C135.319 41.2292 135.156 41.2576 134.993 41.2841C134.83 41.3068 134.682 41.3277 134.55 41.3466C134.266 41.3883 134.018 41.4545 133.805 41.5455C133.593 41.6364 133.429 41.7595 133.311 41.9148C133.194 42.0663 133.135 42.2557 133.135 42.483C133.135 42.8125 133.254 43.0644 133.493 43.2386C133.735 43.4091 134.042 43.4943 134.413 43.4943ZM141.695 48.2727C141.388 48.2727 141.1 48.2481 140.831 48.1989C140.566 48.1534 140.346 48.0947 140.172 48.0227L140.717 46.2159C141.001 46.303 141.257 46.3504 141.484 46.358C141.715 46.3655 141.914 46.3125 142.081 46.1989C142.251 46.0852 142.39 45.892 142.496 45.6193L142.638 45.25L139.507 36.2727H142.053L143.859 42.6818H143.95L145.774 36.2727H148.337L144.945 45.9432C144.782 46.4129 144.56 46.822 144.28 47.1705C144.003 47.5227 143.653 47.7936 143.229 47.983C142.804 48.1761 142.293 48.2727 141.695 48.2727Z" fill="#007FFF"/>
<path d="M35.8024 29.9854L25.6477 19.6099L38.5674 27.1678L35.8024 29.9854ZM22.9982 19C22.3997 19.3188 22 19.9002 22 20.6549V41.3451C22 42.0998 22.4005 42.6812 22.9982 43L34.8049 30.9974L22.9982 19ZM42.5611 29.5773L39.8513 27.9787L36.8286 31.0026L39.8513 34.0265L42.6164 32.4279C43.4446 31.758 43.4446 30.248 42.5611 29.5773ZM25.6484 42.3961L38.5682 34.8382L35.8031 32.0206L25.6484 42.3961Z" fill="#007FFF"/>
</svg>
